<svg width="167" height="81" viewBox="0 0 167 81" fill="none" xmlns="http://www.w3.org/2000/svg">
<path d="M91.9121 36.2474L166.642 8.83252L100.503 73.9736L91.9121 36.2474Z" fill="#CBCBCC"/>
<path d="M0 14.5366L71.8125 36.2474L35.9854 80.2306L0 14.5366Z" fill="#CBCBCC"/>
<path d="M80.5645 0L106.337 48.2112L77.4858 57.0437L80.5645 0Z" fill="#EBECEE"/>
<path d="M58.1153 45.6176C58.1931 45.6594 80.5648 0 80.5648 0L78.1341 62.198L54.9531 55.0208L58.1153 45.6176Z" fill="#EBECEE"/>
<path d="M80.5651 0L76.1875 59.0666H80.5651V0Z" fill="#A5A7AA"/>
<path d="M77.4859 52.4424H72.947L0.411621 13.5418L35.9852 79.1251H129.196L165.694 8.59668L77.4859 52.4424Z" fill="white"/>
<path d="M0.411854 13.5415L0 14.5364L1.68767 15.911L0.411854 13.5415Z" fill="white"/>
<path d="M166.641 8.83267L165.694 8.59668L164.861 9.98307L166.641 8.83267Z" fill="white"/>
<path d="M35.9858 80.2307L72.9476 53.5479H77.4865L129.197 80.2307H35.9858Z" fill="#B3B4B8"/>
<path d="M77.4858 53.5477L166.642 8.83252L129.196 80.2306L77.4858 53.5477Z" fill="#DBD7D8"/>
<path d="M72.9472 53.5478L0 14.5366L35.9854 80.2306L72.9472 53.5478Z" fill="#DBD7D8"/>
</svg>
