<svg xmlns="http://www.w3.org/2000/svg" viewBox="0 0 1299.59 365.18"><g id="Layer_2" data-name="Layer 2"><path d="M1313.56,291.81c-.19-10.19-10.14-18.4-22.41-18.4a26.5,26.5,0,0,0-4.49.38c-1.24-18.41-19.53-33-41.92-33-11.88,0-22.59,4.11-30.23,10.71-7.19-17.77-27.34-30.57-51.08-30.57-24.44,0-45.07,13.56-51.68,32.15a42.55,42.55,0,0,0-16.7-3.36c-17.84,0-32.69,10.63-36,24.69a26.5,26.5,0,0,0-7.15-1c-12.27,0-22.22,8.21-22.41,18.4Z" transform="translate(-13.97 -24.02)" fill="#b2e4e6"/><path d="M1073.28,284.9a24,24,0,0,0-14.36-9.87l.33-1.26a25.12,25.12,0,0,1,15.39,10.51Z" transform="translate(-13.97 -24.02)" fill="#0097a7"/><path d="M1135.43,272.82c-8-14.23-23.79-19.1-24-19.14l.53-1.22c.16,0,16.52,5.08,24.82,19.81Z" transform="translate(-13.97 -24.02)" fill="#0097a7"/><path d="M1121.49,281.68l-1.32-.68c.11-.15,11.63-15.25,38.8-9.08l-.41,1.25C1132.55,267.26,1121.93,281.09,1121.49,281.68Z" transform="translate(-13.97 -24.02)" fill="#0097a7"/><path d="M1201.28,272.63l-1.54-.17a31.61,31.61,0,0,1,14.33-21.5l.87,1.06C1214.83,252.09,1203.5,258.71,1201.28,272.63Z" transform="translate(-13.97 -24.02)" fill="#0097a7"/><path d="M1267.38,286.15l-1.45-.44c5.16-11.74,20.54-12.56,20.69-12.57l.09,1.29C1286.56,274.44,1272.19,275.23,1267.38,286.15Z" transform="translate(-13.97 -24.02)" fill="#0097a7"/><path d="M1270.35,289.29c-7.44-7.18-20.37-6.05-20.5-6l-.18-1.29c.56-.05,13.88-1.22,21.86,6.47Z" transform="translate(-13.97 -24.02)" fill="#0097a7"/></g><g id="Layer_3" data-name="Layer 3"><path d="M16.39,182.9A41,41,0,0,0,14,196.73c0,27.66,27.83,50.09,62.15,50.09,29.71,0,54.53-16.8,60.68-39.25a49.74,49.74,0,0,0,30.47,9.93,54.05,54.05,0,0,0,12.36-1.44,66.24,66.24,0,0,0-1,11.23c0,44.54,44.81,80.65,100.08,80.65,35.4,0,66.49-14.83,84.28-37.2,15.48,11,35.77,17.63,58,17.63a103.67,103.67,0,0,0,45.91-10.43c16.92,37.71,61.72,64.65,114.34,64.65,66.18,0,120-42.62,121.5-95.66a78,78,0,0,0,20.82,2.81c16.12,0,30.83-4.81,42.08-12.74,13,16.93,36.16,28.21,62.65,28.21,37.38,0,68.23-22.47,72.92-51.56a52.54,52.54,0,0,0,19.87,3.85c23.93,0,43.36-15.42,43.91-34.59H16.39Z" transform="translate(-13.97 -24.02)" fill="#b2e4e6"/><path d="M901.45,214.4c-.55-.21-13.44-5.45-19.49-15l1.8-.75c5.73,9,18.45,14.22,18.58,14.27Z" transform="translate(-13.97 -24.02)" fill="#0097a7"/><path d="M768,237.69l-1.23-1.3c.15-.1,15-9.6,18.27-28.6l2,.22A45.9,45.9,0,0,1,768,237.69Z" transform="translate(-13.97 -24.02)" fill="#0097a7"/><path d="M704.67,247.76c-.28-.06-28.19-7.07-43.87-27.27l1.7-.88c15.29,19.69,42.47,26.52,42.75,26.58Z" transform="translate(-13.97 -24.02)" fill="#0097a7"/><path d="M471.35,278.77l-.8-1.51c.45-.15,44.66-16.16,51.26-57.32l2,.21C517.07,262.26,471.81,278.61,471.35,278.77Z" transform="translate(-13.97 -24.02)" fill="#0097a7"/><path d="M367.32,271.5c-.31-.15-31.58-16.2-39.29-45.21l2-.34c7.54,28.33,38.08,44,38.38,44.16Z" transform="translate(-13.97 -24.02)" fill="#0097a7"/><path d="M186.11,216.88l-.41-1.6c.19,0,19.49-3.49,26.44-18.16l1.88.59C206.68,213.23,186.32,216.85,186.11,216.88Z" transform="translate(-13.97 -24.02)" fill="#0097a7"/><path d="M142.72,208.2c-.29-.22-7.18-5.38-10.13-11.51l1.88-.6c2.78,5.78,9.55,10.84,9.61,10.9Z" transform="translate(-13.97 -24.02)" fill="#0097a7"/><path d="M528.87,220.67h-.26c-15.05,0-28.53-4.75-36.05-12.57l1.59-1c7.14,7.42,20,11.89,34.47,11.94h.25c14.5,0,27.51-4.46,34.85-11.95l1.58,1C557.58,216,544,220.67,528.87,220.67Z" transform="translate(-13.97 -24.02)" fill="#0097a7"/><path d="M640.87,226.94c-16.13,0-30.19-8.4-35-20.91l1.92-.49c4.53,11.82,17.81,19.76,33,19.76,12.47,0,24-5.49,30.16-14.32l1.76.81C666.3,221.13,654.06,226.94,640.87,226.94Z" transform="translate(-13.97 -24.02)" fill="#0097a7"/><path d="M386.14,216.91c-20,0-38.17-9.55-46.25-24.77l1.86-.65c8.44,15.92,28.39,25.39,49.62,23.56,17.36-1.5,32.46-10.53,39.4-23.57l1.85.65c-7.23,13.58-22.95,23-41,24.55C389.76,216.84,387.94,216.91,386.14,216.91Z" transform="translate(-13.97 -24.02)" fill="#0097a7"/><path d="M788.45,208c-8,0-15.47-3.13-20.13-8.51l1.65-.95c4.51,5.22,11.85,8.12,19.7,7.8,7.09-.31,13.39-3.26,16.44-7.72l1.76.79c-3.38,4.95-10.32,8.23-18.1,8.56Z" transform="translate(-13.97 -24.02)" fill="#0097a7"/><path d="M303.41,232.4q-3.82,0-8-.37l.22-1.63c43.35,3.86,55.81-25.09,55.93-25.38l1.92.52C353.35,205.83,341.9,232.4,303.41,232.4Z" transform="translate(-13.97 -24.02)" fill="#0097a7"/><path d="M964.88,183.71a41.17,41.17,0,0,0,2.42-13.82c0-27.67-27.83-50.1-62.16-50.1-29.7,0-54.52,16.8-60.67,39.25A49.83,49.83,0,0,0,814,149.11a53.48,53.48,0,0,0-12.35,1.45,66.44,66.44,0,0,0,1-11.24c0-44.54-44.8-80.65-100.07-80.65-35.41,0-66.5,14.84-84.29,37.2-15.48-11-35.77-17.62-58-17.62a103.65,103.65,0,0,0-45.9,10.42C497.43,51,452.63,24,400,24c-66.18,0-120,42.62-121.5,95.66a78,78,0,0,0-20.83-2.81c-16.12,0-30.82,4.82-42.07,12.74-13-16.92-36.17-28.21-62.66-28.21-37.37,0-68.22,22.47-72.91,51.57a52.43,52.43,0,0,0-19.87-3.86c-23.94,0-43.36,15.42-43.91,34.6Z" transform="translate(-13.97 -24.02)" fill="#b2e4e6"/><path d="M79.82,152.21c.54.22,13.44,5.46,19.48,15l-1.79.76c-5.74-9.05-18.45-14.23-18.59-14.28Z" transform="translate(-13.97 -24.02)" fill="#0097a7"/><path d="M213.27,128.92l1.24,1.31a45,45,0,0,0-18.27,28.6l-2-.23A45.91,45.91,0,0,1,213.27,128.92Z" transform="translate(-13.97 -24.02)" fill="#0097a7"/><path d="M276.6,118.85c.28.07,28.18,7.07,43.87,27.28l-1.71.87c-15.29-19.69-42.47-26.51-42.75-26.58Z" transform="translate(-13.97 -24.02)" fill="#0097a7"/><path d="M509.91,87.84l.81,1.51c-.45.16-44.67,16.16-51.26,57.32l-2-.21C464.2,104.36,509.46,88,509.91,87.84Z" transform="translate(-13.97 -24.02)" fill="#0097a7"/><path d="M614,95.11c.31.16,31.57,16.2,39.28,45.21l-2,.34c-7.53-28.33-38.07-44-38.38-44.16Z" transform="translate(-13.97 -24.02)" fill="#0097a7"/><path d="M795.16,149.73l.41,1.6c-.19,0-19.5,3.49-26.44,18.16l-1.89-.59C774.59,153.38,795,149.76,795.16,149.73Z" transform="translate(-13.97 -24.02)" fill="#0097a7"/><path d="M838.54,158.42c.29.21,7.19,5.37,10.13,11.51l-1.88.59c-2.77-5.78-9.54-10.84-9.61-10.89Z" transform="translate(-13.97 -24.02)" fill="#0097a7"/><path d="M452.4,145.94h.26c15,.05,28.52,4.75,36,12.58l-1.59,1c-7.15-7.43-20-11.9-34.47-11.95h-.26c-14.49,0-27.51,4.46-34.84,11.95l-1.59-1C423.69,150.63,437.29,145.94,452.4,145.94Z" transform="translate(-13.97 -24.02)" fill="#0097a7"/><path d="M340.39,139.67c16.14,0,30.19,8.41,35,20.92l-1.93.48c-4.52-11.82-17.8-19.76-33.05-19.76-12.47,0-24,5.49-30.15,14.33l-1.76-.81C315,145.48,327.2,139.67,340.39,139.67Z" transform="translate(-13.97 -24.02)" fill="#0097a7"/><path d="M595.12,149.7c20,0,38.18,9.56,46.25,24.77l-1.85.65c-8.45-15.92-28.4-25.38-49.62-23.56-17.37,1.5-32.47,10.53-39.4,23.58l-1.86-.65c7.23-13.59,23-23,41.05-24.56C591.51,149.78,593.32,149.7,595.12,149.7Z" transform="translate(-13.97 -24.02)" fill="#0097a7"/><path d="M192.81,158.59c8,0,15.47,3.13,20.13,8.52l-1.65.94c-4.51-5.22-11.85-8.12-19.69-7.79-7.09.3-13.39,3.26-16.44,7.72l-1.76-.8c3.38-5,10.31-8.23,18.1-8.56C191.93,158.6,192.38,158.59,192.81,158.59Z" transform="translate(-13.97 -24.02)" fill="#0097a7"/><path d="M677.86,134.22c2.55,0,5.21.11,8,.36l-.22,1.63c-43.34-3.86-55.81,25.09-55.93,25.38l-1.91-.52C627.91,160.78,639.36,134.22,677.86,134.22Z" transform="translate(-13.97 -24.02)" fill="#0097a7"/></g><g id="Layer_4" data-name="Layer 4"><path d="M826.63,389.2c-1.38-10.38-11.93-18.45-24.75-18.45a28,28,0,0,0-15.73,4.66c-2.29-16.42-19-29.17-39.32-29.17-17.07,0-31.57,9-37.15,21.63a32.93,32.93,0,0,0-14.75-3.43c-15.85,0-28.7,10.71-28.7,23.92,0,.29,0,.56,0,.84Z" transform="translate(-13.97 -24.02)" fill="#b2e4e6"/><path d="M723.38,382.56a34.7,34.7,0,0,0-14.24-13.82l1.09-1.74c.37.16,9.16,4.07,15.27,14.71Z" transform="translate(-13.97 -24.02)" fill="#0097a7"/><path d="M778.66,385.32l-2.2-.68c2.41-5.42,8.68-9.8,8.94-10l1.51,1.51C786.84,376.2,780.85,380.41,778.66,385.32Z" transform="translate(-13.97 -24.02)" fill="#0097a7"/><path d="M716.69,385.72l-1.54-1.48c.32-.23,8-5.7,17.42-3.49l-.64,1.89C723.79,380.71,716.76,385.67,716.69,385.72Z" transform="translate(-13.97 -24.02)" fill="#0097a7"/></g></svg>